HIERARCHY
ROOT Hip
{
  OFFSET 0.0 0.0 0.0
  CHANNELS 6 Xposition Yposition Zposition Xrotation Yrotation Zrotation
  JOINT LowerSpine
  {
    OFFSET 0.0 0.061367 -0.03653
    CHANNELS 3 Xrotation Yrotation Zrotation
    JOINT MiddleSpine
    {
      OFFSET 0.0 0.056002 0.002633
      CHANNELS 3 Xrotation Yrotation Zrotation
      JOINT Chest
      {
        OFFSET 0.0 0.069296 -0.013882
        CHANNELS 3 Xrotation Yrotation Zrotation
        JOINT Neck
        {
          OFFSET 0.0 0.156156 -0.002923
          CHANNELS 3 Xrotation Yrotation Zrotation
          JOINT Head
          {
            OFFSET 0.0 0.088183 0.023986
            CHANNELS 3 Xrotation Yrotation Zrotation
            End Site
            {
              OFFSET 1e-06 0.123215 0.003678
            }
          }
        }
        JOINT LClavicle
        {
          OFFSET 0.014189 0.150698 0.046467
          CHANNELS 3 Xrotation Yrotation Zrotation
          JOINT LShoulder
          {
            OFFSET 0.082893 0.021616 -0.034976
            CHANNELS 3 Xrotation Yrotation Zrotation
            JOINT LForearm
            {
              OFFSET 0.195645 -0.000695 -0.001695
              CHANNELS 3 Xrotation Yrotation Zrotation
              JOINT LHand
              {
                OFFSET 0.163209 0.000474 -0.000977
                CHANNELS 3 Xrotation Yrotation Zrotation
                End Site
                {
                  OFFSET 0.0 0.006864 0.0
                }
              }
            }
          }
        }
        JOINT RClavicle
        {
          OFFSET -0.014189 0.150698 0.046467
          CHANNELS 3 Xrotation Yrotation Zrotation
          JOINT RShoulder
          {
            OFFSET -0.082908 0.021619 -0.034982
            CHANNELS 3 Xrotation Yrotation Zrotation
            JOINT RForearm
            {
              OFFSET -0.195645 -0.000695 -0.001695
              CHANNELS 3 Xrotation Yrotation Zrotation
              JOINT RHand
              {
                OFFSET -0.163209 0.000474 -0.000977
                CHANNELS 3 Xrotation Yrotation Zrotation
                End Site
                {
                  OFFSET 0.0 0.006864 0.0
                }
              }
            }
          }
        }
      }
    }
  }
  JOINT RThigh
  {
    OFFSET -0.072558 0.02774 -0.005953
    CHANNELS 3 Xrotation Yrotation Zrotation
    JOINT RShin
    {
      OFFSET -0.005253 -0.285537 0.0
      CHANNELS 3 Xrotation Yrotation Zrotation
      JOINT RFoot
      {
        OFFSET 0.0 -0.28038 0.0
        CHANNELS 3 Xrotation Yrotation Zrotation
        JOINT RToe
        {
          OFFSET 0.0 -0.030816 0.064441
          CHANNELS 3 Xrotation Yrotation Zrotation
          End Site
          {
            OFFSET 0.0 0.0 0.043231
          }
        }
      }
    }
  }
  JOINT LThigh
  {
    OFFSET 0.072557 0.027741 -0.005953
    CHANNELS 3 Xrotation Yrotation Zrotation
    JOINT LShin
    {
      OFFSET 0.005253 -0.285539 0.0
      CHANNELS 3 Xrotation Yrotation Zrotation
      JOINT LFoot
      {
        OFFSET 0.0 -0.28038 0.0
        CHANNELS 3 Xrotation Yrotation Zrotation
        JOINT LToe
        {
          OFFSET 0.0 -0.030816 0.064441
          CHANNELS 3 Xrotation Yrotation Zrotation
          End Site
          {
            OFFSET 0.0 0.0 0.043231
          }
        }
      }
    }
  }
}
MOTION
Frames: 17
Frame Time: 0.03333333333333333
-0.093742 0.552468 -0.085908 1.930249 -0.988691 10.392883 13.079525 5.797293 -15.678814 -5.061739 -2.24414 -14.193573 -2.745826 -2.425417 9.110113 19.195702 -8.424114 4.821691 -8.639114 12.968503 3.424387 -11.21396 8.791101 -5.202663 10.57398 -19.472164 -45.155415 -2.183436 -45.30032 -11.508402 -10.294491 -9.230594 6.807169 0.787637 9.234881 21.057089 -0.719601 39.028561 55.060623 1.473978 38.428734 11.474646 13.469674 5.093927 5.884614 -17.546152 -0.517591 -6.413511 19.57056 1.101611 12.395354 -12.029388 -2.40491 10.122988 6.388785 -12.076542 -6.503741 -9.854147 14.273798 -3.669492 9.445661 12.473689 7.593337 -0.738178 5.130009 -12.326948 -10.770998 11.083781 4.170391 
-0.09422 0.552742 -0.08873 1.993762 -1.175188 10.410415 13.164468 5.750744 -15.681206 -5.272711 -2.223394 -14.165703 -2.979167 -2.468403 9.159562 19.245687 -8.472429 4.851723 -8.650201 12.968647 3.402355 -11.323602 8.661877 -5.12473 10.635256 -19.49387 -45.419601 -2.062833 -44.987366 -11.412879 -10.313496 -9.234179 6.796283 0.689785 9.300756 21.007065 -0.723953 39.073074 55.07365 1.651276 37.632244 11.267912 13.463475 5.0975 5.884034 -18.200903 -0.371358 -6.430385 20.053247 1.156816 12.38359 -12.150748 -2.550945 10.014366 6.334627 -12.105836 -6.525501 -10.389916 14.034659 -3.692582 9.551357 12.355243 7.484006 -0.837262 5.092055 -12.383139 -10.788218 11.062883 4.168275 
-0.094636 0.552776 -0.093198 2.307842 -1.354867 10.549468 13.170168 5.778625 -15.644566 -5.638909 -2.267783 -14.173396 -3.454315 -2.520864 9.139032 19.349796 -8.552729 4.91016 -8.693213 12.997894 3.372554 -11.50985 8.508341 -5.025375 10.887165 -19.233593 -45.735207 -1.983155 -44.997292 -11.48613 -10.366179 -9.25949 6.794824 0.611076 9.467395 20.899946 -0.566835 38.979156 55.150188 1.803384 36.854225 11.130282 13.494637 5.148508 5.886439 -19.327469 -0.051311 -6.546692 20.599653 1.374784 12.351918 -12.451859 -2.786749 9.906293 6.284416 -12.17947 -6.571921 -11.347853 13.889935 -3.80784 9.701229 12.310797 7.409379 -0.909444 4.933578 -12.482002 -10.874332 11.055036 4.179489 
-0.094722 0.552843 -0.099014 2.854377 -1.442044 10.71754 13.092151 5.804781 -15.638217 -6.125907 -2.342341 -14.196872 -4.071472 -2.646567 9.071199 19.474911 -8.664008 4.987995 -8.742793 13.043545 3.340261 -11.747296 8.354436 -4.886346 11.292212 -18.793068 -46.031174 -1.856224 -45.310261 -11.635858 -10.441154 -9.292539 6.795133 0.530919 9.661635 20.809469 -0.221904 38.804489 55.211494 1.97321 36.26342 11.02174 13.548977 5.214571 5.892287 -20.888683 0.283831 -6.787847 21.222618 1.562776 12.381993 -12.719105 -3.085784 9.815001 6.246581 -12.272126 -6.630394 -12.699162 13.803005 -3.944447 9.945553 12.432349 7.315895 -0.927966 4.743754 -12.600124 -11.00404 11.048025 4.199229 
-0.09438 0.552855 -0.105251 3.714858 -1.364005 10.887409 12.779098 5.822289 -15.671025 -6.709517 -2.42648 -14.278111 -4.83727 -2.88045 8.972223 19.606544 -8.830511 5.035493 -8.823244 13.130482 3.300119 -11.955453 8.287841 -4.744535 11.776464 -18.129362 -46.309177 -1.67059 -45.813129 -11.822436 -10.540253 -9.344976 6.813428 0.553424 9.767961 20.828539 0.243148 38.561947 55.310535 2.111369 35.758621 10.961444 13.645809 5.287049 5.913907 -22.968971 0.570003 -7.124026 22.068205 1.683823 12.522805 -12.963696 -3.516466 9.739323 6.229667 -12.394835 -6.718781 -14.563961 13.717188 -4.099285 10.421309 12.763926 7.223488 -0.835454 4.630858 -12.742477 -11.178783 11.064115 4.236043 
-0.091075 0.550297 -0.115375 4.262529 -1.572029 10.978135 12.560031 5.786137 -15.773191 -7.194569 -2.590823 -14.306909 -5.620755 -3.188536 8.929743 19.635944 -9.010097 5.147816 -8.848392 13.248218 3.283493 -12.16939 8.213634 -4.684089 12.228105 -17.67765 -46.40609 -1.620589 -46.112156 -12.102049 -10.638539 -9.39736 6.86445 0.546394 10.004321 20.770247 0.829329 38.004997 55.348305 2.073693 36.151859 11.231156 13.741473 5.374333 5.955772 -24.372015 0.600055 -7.449709 22.488157 1.720954 12.667404 -13.018589 -3.754673 9.807988 6.268953 -12.487931 -6.80531 -15.635558 13.633749 -4.312552 10.569885 12.93214 7.258796 -0.869804 4.499036 -12.859673 -11.307851 11.137636 4.275393 
-0.086525 0.546599 -0.119509 4.620846 -1.939729 10.653823 12.42197 5.610205 -15.766985 -7.380093 -2.726384 -14.11656 -6.110848 -3.480754 8.628147 19.617256 -8.951158 5.211738 -8.692024 13.14573 3.248024 -12.251657 8.045592 -4.752903 12.625504 -17.940855 -46.222939 -1.195372 -45.292 -11.844808 -10.569822 -9.311041 6.816096 0.487726 10.090617 20.565287 1.378299 37.803413 55.389698 2.423329 37.235569 11.387396 13.613641 5.361336 5.910761 -25.264633 0.307773 -7.370014 22.903912 1.340824 12.692323 -12.646023 -3.819064 9.7698 6.27298 -12.34586 -6.78093 -16.468573 13.524442 -3.972329 10.901248 13.091965 7.155555 -1.136017 4.528655 -12.682664 -11.254489 11.031138 4.236634 
-0.089302 0.545291 -0.117398 5.152948 -1.820682 10.329547 11.902008 5.542989 -15.634995 -7.492702 -2.855596 -14.032086 -6.301639 -3.698728 8.295158 19.541391 -8.903826 5.26854 -8.39066 13.066288 3.282663 -12.203979 7.965836 -4.892806 13.148232 -18.061598 -46.244316 -0.719334 -44.186111 -11.523304 -10.465231 -9.26201 6.779019 0.538156 10.148169 20.41326 1.822432 37.739342 55.374466 2.593053 38.466068 11.505032 13.476335 5.343227 5.90145 -26.119576 0.127292 -7.294682 23.57601 1.031995 12.698385 -12.565173 -4.008912 9.662086 6.203464 -12.255292 -6.759823 -17.817707 13.057006 -3.444712 11.433598 13.025716 7.160109 -1.01886 4.571719 -12.50501 -11.195454 10.919385 4.207689 
-0.090725 0.541734 -0.121963 5.740793 -1.506333 10.010294 11.147896 5.566801 -15.228614 -7.533549 -2.938206 -13.981041 -6.228333 -3.746877 7.904866 19.264824 -8.858901 5.243516 -8.062404 12.943207 3.320374 -12.09998 7.861248 -5.085052 13.817166 -18.268158 -46.157982 -0.23284 -43.48103 -11.32623 -10.343856 -9.207816 6.717669 0.554215 10.198431 20.287489 2.304408 38.020134 55.153175 2.864648 39.261494 11.481039 13.304254 5.31237 5.88581 -27.162498 0.372215 -7.199908 24.61734 1.080988 12.495869 -12.807493 -4.204564 9.429689 6.037501 -12.182828 -6.71783 -19.429455 12.488906 -2.813468 12.245383 12.801513 6.990959 -0.909318 4.515387 -12.362099 -11.151027 10.764266 4.16377 
-0.090743 0.538499 -0.127078 6.29575 -1.120063 9.833587 10.462615 5.622078 -14.828853 -7.592342 -2.979644 -13.987321 -6.216249 -3.724989 7.623113 18.878996 -8.907395 5.199457 -7.85486 12.881116 3.335758 -12.046396 7.787635 -5.236179 14.458382 -18.466463 -46.018749 0.200943 -43.11319 -11.277274 -10.300097 -9.182721 6.677585 0.567496 10.298294 20.185724 2.689962 38.380329 54.894855 3.045215 39.483604 11.455658 13.209954 5.320637 5.890502 -28.322374 0.900856 -7.194345 25.680054 1.459205 12.243221 -13.217413 -4.391927 9.205607 5.858645 -12.189343 -6.698016 -20.966791 11.976355 -2.378055 12.980274 12.583635 6.787713 -0.873961 4.362261 -12.357978 -11.16236 10.663716 4.140176 
-0.089676 0.536262 -0.13087 6.665124 -0.667463 9.81135 9.978206 5.705876 -14.48227 -7.730845 -2.997739 -14.02279 -6.317914 -3.604074 7.482098 18.492779 -9.044944 5.180185 -7.722511 12.878759 3.329775 -12.057821 7.697637 -5.284279 14.906222 -18.498226 -46.063457 0.443754 -43.010353 -11.385091 -10.316463 -9.174998 6.671088 0.502512 10.503398 20.076298 2.845441 38.650627 54.794582 3.022474 38.974491 11.413887 13.181959 5.348846 5.890552 -29.640764 1.691241 -7.249913 26.740149 2.190838 11.957667 -13.728062 -4.551657 9.028392 5.697296 -12.237499 -6.721671 -22.296515 11.531548 -2.266687 13.443719 12.347462 6.615627 -0.905807 4.095826 -12.448725 -11.199893 10.620171 4.128568 
-0.088223 0.534021 -0.135599 7.219029 -0.282226 9.826186 9.684003 5.789771 -14.185463 -7.970459 -2.986243 -14.027279 -6.654152 -3.487055 7.39259 18.168901 -9.161512 5.157522 -7.660687 12.863648 3.297867 -12.060584 7.596572 -5.262911 15.29779 -18.496201 -46.224255 0.635413 -42.872952 -11.408667 -10.345724 -9.158452 6.653396 0.418588 10.632861 19.951645 2.885482 38.856693 54.815861 3.005565 38.052052 11.278784 13.162452 5.369485 5.881961 -31.522255 2.497629 -7.189551 28.047445 2.913774 11.69313 -14.232184 -4.782299 8.820454 5.528162 -12.282768 -6.749271 -23.915596 11.089903 -2.231918 14.061812 12.123806 6.355155 -1.055965 3.90188 -12.539191 -11.253839 10.569088 4.119755 
-0.086569 0.530623 -0.141728 8.256658 0.013319 9.773488 9.244655 5.845481 -13.836649 -8.245484 -2.951841 -13.997912 -7.185402 -3.468092 7.179482 17.687244 -9.255776 5.080155 -7.626318 12.820561 3.251495 -11.973703 7.529137 -5.269847 15.762472 -18.418039 -46.263905 0.809387 -42.9245 -11.379855 -10.394023 -9.111271 6.602536 0.42452 10.595927 19.887716 3.046821 38.992916 54.855568 3.06726 37.125904 11.026427 13.11898 5.35386 5.865012 -34.220535 3.21591 -6.94846 29.752247 3.469239 11.473969 -14.583812 -5.037494 8.624958 5.38619 -12.266039 -6.765349 -26.27961 10.615378 -2.037836 15.256077 12.090891 5.88656 -1.275704 3.847653 -12.582532 -11.311195 10.477374 4.111649 
-0.084676 0.526156 -0.148575 10.418073 0.433981 9.676338 8.326865 5.829983 -13.386194 -8.571059 -2.936635 -13.97141 -8.004147 -3.596962 6.712713 16.950964 -9.300136 4.869657 -7.552498 12.727616 3.179159 -11.704862 7.555541 -5.423064 16.477007 -18.178158 -45.996822 1.16975 -43.316017 -11.285324 -10.426843 -9.01558 6.497069 0.715895 10.272997 19.937212 3.65925 38.94138 54.83511 3.41754 36.51685 10.61548 13.018035 5.278399 5.841012 -38.447159 3.797176 -6.60756 32.139374 3.754749 11.233812 -14.761373 -5.363116 8.421232 5.254331 -12.150958 -6.756427 -30.1847 10.147806 -1.616798 17.469568 12.366372 5.218884 -1.429714 3.863128 -12.552656 -11.353088 10.322031 4.084375 
-0.08221 0.52008 -0.15732 13.447199 0.823172 9.520083 7.076862 5.745737 -12.752718 -8.877752 -2.848947 -13.859005 -8.95082 -3.843317 6.014565 15.977453 -9.289776 4.475475 -7.447305 12.521236 3.07653 -11.315773 7.600736 -5.657193 17.385044 -17.940592 -45.574631 1.681353 -43.786213 -11.09919 -10.369493 -8.854931 6.340778 1.114645 9.70996 20.010551 4.552883 38.807861 54.798386 3.978476 36.319359 10.114469 12.804936 5.149441 5.789241 -44.18766 4.380166 -6.143654 35.481968 3.931257 10.877651 -14.9129 -5.784774 8.10868 5.118299 -11.922484 -6.706527 -35.700344 9.553136 -0.948737 20.813595 12.738933 4.312303 -1.682599 3.924985 -12.399642 -11.331359 10.058854 4.034062 
-0.079141 0.513222 -0.16524 17.108467 1.275606 9.285372 5.335558 5.738168 -11.9828 -8.980185 -2.650784 -13.832847 -9.873217 -4.230234 5.1676 14.64946 -9.441791 3.887944 -7.273772 12.385038 2.952561 -10.775908 7.806109 -6.05072 18.472128 -17.843641 -44.816685 2.257526 -44.329254 -11.051573 -10.303056 -8.720469 6.196096 1.713867 8.918947 20.251368 5.883539 38.664463 54.447151 4.772653 36.374252 9.635197 12.605128 4.991858 5.763628 -50.896042 4.944058 -5.664337 39.800507 4.227937 10.443334 -15.070454 -6.379749 7.75497 4.976588 -11.712033 -6.680137 -42.245918 8.90318 -0.261303 25.162571 13.308274 3.290715 -1.811259 3.974202 -12.283134 -11.322594 9.809487 4.004582 
-0.076393 0.505858 -0.171457 20.925707 1.839429 8.805752 3.377802 5.885795 -11.084108 -8.750958 -2.431825 -13.75513 -10.571212 -4.746357 4.181778 12.969366 -9.667563 3.156051 -7.088907 12.21243 2.812784 -10.098933 8.085532 -6.592563 19.650784 -17.945528 -43.80764 2.976162 -44.9674 -10.994585 -10.207811 -8.561331 6.020879 2.428131 7.953609 20.656374 7.443938 38.64904 53.831524 5.482772 36.525532 9.206649 12.367664 4.800764 5.74116 -57.760765 5.448483 -5.077232 44.566208 4.433118 9.911832 -15.149117 -6.966381 7.371998 4.821983 -11.456382 -6.656826 -49.37949 8.059233 0.622232 30.652557 13.861929 2.205059 -1.895231 4.085021 -12.173694 -11.28389 9.51641 3.984838 
